<svg width="104" height="79" viewBox="0 0 104 79" fill="none" xmlns="http://www.w3.org/2000/svg">
<path d="M3.44867 78.5565H1.10141V66.2786H3.44867V78.5565ZM10.2738 70.4314C10.2738 71.3703 10.0872 72.1708 9.71404 72.8328C9.34089 73.4949 8.84736 73.9944 8.23346 74.3315C7.6316 74.6685 6.98159 74.837 6.28343 74.837C5.57324 74.837 4.95332 74.6565 4.42368 74.2954C3.90608 73.9342 3.50283 73.4227 3.21394 72.7606C2.93708 72.0986 2.79865 71.3222 2.79865 70.4314C2.79865 69.5286 2.93708 68.7522 3.21394 68.1022C3.50283 67.4402 3.90608 66.9286 4.42368 66.5675C4.95332 66.2063 5.57324 66.0258 6.28343 66.0258C6.98159 66.0258 7.6316 66.1943 8.23346 66.5314C8.84736 66.8684 9.34089 67.3679 9.71404 68.03C10.0872 68.68 10.2738 69.4805 10.2738 70.4314ZM7.85429 70.4314C7.85429 69.9379 7.75197 69.5166 7.54734 69.1675C7.34271 68.8184 7.06585 68.5536 6.71677 68.3731C6.37973 68.1925 6.00658 68.1022 5.59731 68.1022C5.24823 68.1022 4.90517 68.1925 4.56813 68.3731C4.24312 68.5416 3.97228 68.8004 3.75561 69.1495C3.55098 69.4985 3.44867 69.9259 3.44867 70.4314C3.44867 70.937 3.55098 71.3643 3.75561 71.7134C3.97228 72.0625 4.24312 72.3273 4.56813 72.5078C4.90517 72.6764 5.24823 72.7606 5.59731 72.7606C6.00658 72.7606 6.37973 72.6703 6.71677 72.4898C7.06585 72.3092 7.34271 72.0444 7.54734 71.6953C7.75197 71.3462 7.85429 70.9249 7.85429 70.4314ZM11.909 63.0646C11.909 62.6794 12.0474 62.3665 12.3242 62.1257C12.6011 61.8729 12.9321 61.7466 13.3173 61.7466C13.7025 61.7466 14.0275 61.8729 14.2923 62.1257C14.5692 62.3665 14.7076 62.6794 14.7076 63.0646C14.7076 63.4378 14.5692 63.7508 14.2923 64.0035C14.0275 64.2563 13.7025 64.3827 13.3173 64.3827C12.9321 64.3827 12.6011 64.2563 12.3242 64.0035C12.0474 63.7508 11.909 63.4378 11.909 63.0646ZM12.1617 66.2786H14.4368V74.5843H12.1617V66.2786ZM20.8373 74.7648C19.9345 74.7648 19.1461 74.5843 18.472 74.2231C17.7979 73.862 17.2743 73.3625 16.9011 72.7245C16.54 72.0745 16.3594 71.3101 16.3594 70.4314C16.3594 69.5407 16.54 68.7763 16.9011 68.1383C17.2743 67.4883 17.7979 66.9888 18.472 66.6397C19.1461 66.2786 19.9405 66.098 20.8553 66.098C21.7702 66.098 22.5466 66.2665 23.1845 66.6036C23.8346 66.9286 24.3281 67.4101 24.6651 68.048C25.0022 68.674 25.1707 69.4323 25.1707 70.3231C25.1707 70.4314 25.1647 70.5458 25.1526 70.6661C25.1526 70.7865 25.1466 70.8828 25.1346 70.955H17.6956V69.5106H23.0943L22.4623 70.3411C22.5105 70.2689 22.5526 70.1726 22.5887 70.0522C22.6368 69.9198 22.6609 69.8115 22.6609 69.7272C22.6609 69.318 22.5827 68.9689 22.4262 68.68C22.2817 68.3911 22.0711 68.1624 21.7942 67.9939C21.5174 67.8254 21.1924 67.7411 20.8192 67.7411C20.3618 67.7411 19.9766 67.8434 19.6637 68.048C19.3627 68.2406 19.128 68.5356 18.9595 68.9328C18.803 69.318 18.7187 69.7995 18.7067 70.3772C18.7067 70.931 18.7849 71.4004 18.9414 71.7856C19.1099 72.1708 19.3567 72.4657 19.6817 72.6703C20.0067 72.875 20.3979 72.9773 20.8553 72.9773C21.3729 72.9773 21.8123 72.881 22.1734 72.6884C22.5466 72.4838 22.8535 72.1828 23.0943 71.7856L25.1346 72.4176C24.7012 73.2 24.1234 73.7898 23.4012 74.187C22.691 74.5722 21.8364 74.7648 20.8373 74.7648ZM30.3895 68.4092H26.4895V66.2786H34.3257L29.8659 72.4537H33.8021V74.5843H25.7853L30.3895 68.4092ZM34.9266 70.4314C34.9266 69.5647 35.1252 68.8064 35.5225 68.1564C35.9317 67.5064 36.4794 67.0008 37.1655 66.6397C37.8637 66.2786 38.6521 66.098 39.5309 66.098C40.4096 66.098 41.192 66.2786 41.8781 66.6397C42.5763 67.0008 43.124 67.5064 43.5212 68.1564C43.9305 68.8064 44.1351 69.5647 44.1351 70.4314C44.1351 71.2861 43.9305 72.0444 43.5212 72.7065C43.124 73.3565 42.5763 73.862 41.8781 74.2231C41.192 74.5843 40.4096 74.7648 39.5309 74.7648C38.6521 74.7648 37.8637 74.5843 37.1655 74.2231C36.4794 73.862 35.9317 73.3565 35.5225 72.7065C35.1252 72.0444 34.9266 71.2861 34.9266 70.4314ZM37.31 70.4314C37.31 70.9009 37.4063 71.3162 37.5989 71.6773C37.8035 72.0263 38.0744 72.3032 38.4114 72.5078C38.7484 72.7004 39.1216 72.7967 39.5309 72.7967C39.9401 72.7967 40.3133 72.7004 40.6503 72.5078C40.9874 72.3032 41.2522 72.0263 41.4448 71.6773C41.6494 71.3162 41.7517 70.9009 41.7517 70.4314C41.7517 69.962 41.6494 69.5467 41.4448 69.1856C41.2522 68.8244 40.9874 68.5476 40.6503 68.355C40.3133 68.1624 39.9401 68.0661 39.5309 68.0661C39.1216 68.0661 38.7484 68.1624 38.4114 68.355C38.0744 68.5476 37.8035 68.8244 37.5989 69.1856C37.4063 69.5467 37.31 69.962 37.31 70.4314Z" fill="#F22C2A"/>
<path d="M58.1676 69.2758V74.5843H55.8203V69.5286C55.8203 68.9629 55.724 68.5416 55.5314 68.2647C55.3388 67.9758 55.0259 67.8314 54.5925 67.8314C54.3036 67.8314 54.0509 67.8976 53.8342 68.03C53.6175 68.1504 53.449 68.343 53.3286 68.6078C53.2082 68.8606 53.1481 69.1675 53.1481 69.5286V74.5843H50.8189V69.5286C50.8189 68.9629 50.7226 68.5416 50.53 68.2647C50.3374 67.9758 50.0244 67.8314 49.5911 67.8314C49.3022 67.8314 49.0494 67.8976 48.8327 68.03C48.616 68.1504 48.4475 68.343 48.3272 68.6078C48.2068 68.8606 48.1466 69.1675 48.1466 69.5286V74.5843H45.8896V66.2786H48.1466V67.5064C48.3873 67.049 48.7063 66.6999 49.1036 66.4591C49.5008 66.2184 49.9763 66.098 50.53 66.098C51.1439 66.098 51.6494 66.2184 52.0467 66.4591C52.4439 66.6999 52.7328 67.055 52.9133 67.5244C53.2143 67.055 53.5814 66.6999 54.0147 66.4591C54.4601 66.2184 54.9657 66.098 55.5314 66.098C56.1453 66.098 56.6449 66.2244 57.0301 66.4772C57.4153 66.7179 57.6981 67.079 57.8787 67.5605C58.0713 68.03 58.1676 68.6018 58.1676 69.2758ZM64.3899 74.7648C63.4871 74.7648 62.6987 74.5843 62.0246 74.2231C61.3505 73.862 60.8269 73.3625 60.4538 72.7245C60.0926 72.0745 59.9121 71.3101 59.9121 70.4314C59.9121 69.5407 60.0926 68.7763 60.4538 68.1383C60.8269 67.4883 61.3505 66.9888 62.0246 66.6397C62.6987 66.2786 63.4932 66.098 64.408 66.098C65.3228 66.098 66.0992 66.2665 66.7372 66.6036C67.3872 66.9286 67.8807 67.4101 68.2178 68.048C68.5548 68.674 68.7233 69.4323 68.7233 70.3231C68.7233 70.4314 68.7173 70.5458 68.7053 70.6661C68.7053 70.7865 68.6993 70.8828 68.6872 70.955H61.2482V69.5106H66.6469L66.015 70.3411C66.0631 70.2689 66.1052 70.1726 66.1414 70.0522C66.1895 69.9198 66.2136 69.8115 66.2136 69.7272C66.2136 69.318 66.1353 68.9689 65.9789 68.68C65.8344 68.3911 65.6238 68.1624 65.3469 67.9939C65.07 67.8254 64.745 67.7411 64.3719 67.7411C63.9145 67.7411 63.5293 67.8434 63.2163 68.048C62.9154 68.2406 62.6807 68.5356 62.5121 68.9328C62.3556 69.318 62.2714 69.7995 62.2593 70.3772C62.2593 70.931 62.3376 71.4004 62.4941 71.7856C62.6626 72.1708 62.9094 72.4657 63.2344 72.6703C63.5594 72.875 63.9506 72.9773 64.408 72.9773C64.9256 72.9773 65.365 72.881 65.7261 72.6884C66.0992 72.4838 66.4062 72.1828 66.6469 71.7856L68.6872 72.4176C68.2539 73.2 67.6761 73.7898 66.9539 74.187C66.2437 74.5722 65.389 74.7648 64.3899 74.7648ZM69.4219 66.2786H74.5497V68.2467H69.4219V66.2786ZM70.8483 63.3896H73.1053V74.5843H70.8483V63.3896ZM78.0877 66.2786V74.5843H75.7946V66.2786H78.0877ZM80.5252 68.7161C80.3687 68.5717 80.2062 68.4633 80.0377 68.3911C79.8812 68.3068 79.6826 68.2647 79.4419 68.2647C79.153 68.2647 78.9062 68.343 78.7016 68.4994C78.497 68.6559 78.3405 68.8786 78.2321 69.1675C78.1358 69.4444 78.0877 69.7814 78.0877 70.1786L77.4377 69.5286C77.4377 68.8666 77.5641 68.2828 77.8169 67.7772C78.0696 67.2596 78.4007 66.8503 78.8099 66.5494C79.2192 66.2364 79.6405 66.08 80.0738 66.08C80.3748 66.08 80.6576 66.1341 80.9225 66.2425C81.1993 66.3508 81.422 66.5133 81.5905 66.73L80.5252 68.7161ZM82.7217 63.0646C82.7217 62.6794 82.8601 62.3665 83.137 62.1257C83.4138 61.8729 83.7449 61.7466 84.13 61.7466C84.5152 61.7466 84.8402 61.8729 85.1051 62.1257C85.3819 62.3665 85.5203 62.6794 85.5203 63.0646C85.5203 63.4378 85.3819 63.7508 85.1051 64.0035C84.8402 64.2563 84.5152 64.3827 84.13 64.3827C83.7449 64.3827 83.4138 64.2563 83.137 64.0035C82.8601 63.7508 82.7217 63.4378 82.7217 63.0646ZM82.9745 66.2786H85.2495V74.5843H82.9745V66.2786ZM89.5014 70.4314C89.5014 70.9129 89.6097 71.3342 89.8264 71.6953C90.0431 72.0564 90.3319 72.3393 90.6931 72.5439C91.0662 72.7486 91.4755 72.8509 91.9209 72.8509C92.282 72.8509 92.6311 72.7967 92.9681 72.6884C93.3051 72.568 93.6061 72.4115 93.8709 72.2189C94.1477 72.0143 94.3584 71.7796 94.5028 71.5148V73.9162C94.214 74.181 93.8348 74.3917 93.3653 74.5481C92.9079 74.6926 92.3723 74.7648 91.7584 74.7648C90.8796 74.7648 90.0852 74.5843 89.375 74.2231C88.6768 73.862 88.1231 73.3565 87.7138 72.7065C87.3166 72.0444 87.118 71.2861 87.118 70.4314C87.118 69.5647 87.3166 68.8064 87.7138 68.1564C88.1231 67.5064 88.6768 67.0008 89.375 66.6397C90.0852 66.2786 90.8796 66.098 91.7584 66.098C92.3723 66.098 92.9079 66.1763 93.3653 66.3327C93.8348 66.4772 94.214 66.6758 94.5028 66.9286V69.33C94.3584 69.0652 94.1417 68.8365 93.8528 68.6439C93.576 68.4393 93.269 68.2828 92.932 68.1744C92.5949 68.0661 92.2579 68.0119 91.9209 68.0119C91.4755 68.0119 91.0662 68.1203 90.6931 68.3369C90.3319 68.5416 90.0431 68.8244 89.8264 69.1856C89.6097 69.5467 89.5014 69.962 89.5014 70.4314ZM96.9812 71.7134C97.3302 72.0384 97.6552 72.3032 97.9562 72.5078C98.2571 72.7004 98.54 72.8449 98.8048 72.9412C99.0816 73.0375 99.3404 73.0856 99.5812 73.0856C99.8942 73.0856 100.135 73.0194 100.303 72.887C100.472 72.7426 100.556 72.55 100.556 72.3092C100.556 72.0926 100.484 71.912 100.34 71.7675C100.207 71.6111 100.009 71.4726 99.7437 71.3523C99.4789 71.2319 99.1418 71.1055 98.7326 70.9731C98.3474 70.8286 97.9742 70.6601 97.6131 70.4675C97.252 70.2629 96.9511 69.9981 96.7103 69.6731C96.4816 69.336 96.3673 68.9087 96.3673 68.3911C96.3673 67.8976 96.4997 67.4823 96.7645 67.1453C97.0293 66.7962 97.3844 66.5374 97.8298 66.3689C98.2872 66.1883 98.7928 66.098 99.3465 66.098C99.8159 66.098 100.255 66.1582 100.665 66.2786C101.074 66.3989 101.453 66.5614 101.802 66.7661C102.151 66.9587 102.458 67.1874 102.723 67.4522L101.694 68.8967C101.393 68.5717 101.032 68.3068 100.61 68.1022C100.201 67.8976 99.7979 67.7953 99.4006 67.7953C99.1358 67.7953 98.9252 67.8494 98.7687 67.9578C98.6242 68.0541 98.552 68.2045 98.552 68.4092C98.552 68.5897 98.6242 68.7522 98.7687 68.8967C98.9252 69.0291 99.1418 69.1495 99.4187 69.2578C99.7076 69.3661 100.033 69.4985 100.394 69.655C100.839 69.8235 101.248 70.0161 101.622 70.2328C102.007 70.4374 102.314 70.6962 102.542 71.0092C102.771 71.3222 102.885 71.7314 102.885 72.237C102.885 73.0676 102.615 73.7176 102.073 74.187C101.531 74.6444 100.785 74.8732 99.834 74.8732C99.2441 74.8732 98.7025 74.7949 98.2089 74.6384C97.7275 74.4819 97.2881 74.2773 96.8909 74.0245C96.5057 73.7597 96.1566 73.4768 95.8436 73.1759L96.9812 71.7134Z" fill="white"/>
<circle cx="51.8203" cy="29.0699" r="26.7226" fill="#02294D"/>
<mask id="path-3-inside-1_799_2180" fill="white">
<path fill-rule="evenodd" clip-rule="evenodd" d="M32.756 17.6045C32.6759 17.8346 32.6003 18.0448 32.5297 18.2413C31.9627 19.8176 31.7128 20.5125 32.0337 23.5629C32.0337 23.5629 32.7318 21.0292 35.4642 20.042C38.1965 19.0548 46.027 18.5073 46.027 18.5073C46.027 18.5073 44.036 18.0082 43.6798 16.9725C43.0476 15.1351 44.6728 14.2641 44.6728 14.2641L60.6692 2.88896C59.2527 3.69051 57.9272 4.45897 56.6626 5.19213L56.6619 5.19256L56.6618 5.19264C51.6598 8.0926 47.6108 10.4401 42.6523 12.0974C47.0591 7.40292 50.4897 4.51399 55.8674 3.05176e-05L37.631 13.1808C37.631 13.1808 36.8976 15.3114 35.6447 16.2503C34.7738 16.903 32.756 17.6045 32.756 17.6045ZM38.9338 14.7156C38.2669 15.2132 37.4894 16.4309 37.4894 16.4309C37.4894 16.4309 39.002 16.4344 39.7072 15.7989C40.2375 15.321 40.6491 13.9933 40.6491 13.9933C40.6491 13.9933 39.5953 14.222 38.9338 14.7156ZM46.337 16.2454C46.337 16.2454 50.0225 12.5382 53.3788 11.4604C56.3184 10.5164 63.0386 10.9187 63.0386 10.9187C54.8612 11.7836 52.2993 13.1279 48.2553 15.25C47.6561 15.5644 47.0243 15.8959 46.337 16.2454ZM72.6139 22.5381C67.882 19.5142 57.1759 13.3052 57.1759 13.3052C57.1759 13.3052 62.8057 16.7563 65.7972 19.6893C69.3887 23.2106 71.1749 25.5802 73.3766 30.1025C75.1227 33.6888 76.1448 36.1631 76.5285 39.818C76.9122 43.4728 75.8501 49.0551 75.8501 49.0551C75.8501 49.0551 77.4577 45.1696 78.3339 41.2456C79.2101 37.3217 79.5045 34.262 79.5045 34.262C79.5045 34.262 80.8876 36.3745 81.4098 37.3217C81.932 38.2688 82.569 39.7777 82.569 39.7777C82.569 39.7777 82.992 35.5439 80.3183 30.4936C78.3339 26.7453 75.6898 24.5038 72.6139 22.5381ZM67.3236 23.0093C67.3236 23.0093 72.4071 29.6014 73.9109 34.578C75.0736 38.4254 75.5088 41.7504 75.1506 44.7949C74.8007 47.7698 69.9507 52.1555 67.5365 53.9945C64.4001 56.3836 62.8548 57.3817 62.8548 57.3817C62.8548 57.3817 68.438 52.43 70.1183 46.0421C71.0515 42.4945 71.3281 40.3862 71.2605 36.7185C71.2112 34.0394 71.1351 32.4933 70.4341 29.9072C69.6609 27.0551 67.3236 23.0093 67.3236 23.0093ZM64.501 13.8653C62.4569 13.6382 58.8033 13.3261 58.8033 13.3261C58.8033 13.3261 62.3301 14.6568 63.3688 15.1932C64.4515 15.7522 66.703 16.9897 67.6119 17.5351C68.3007 17.9483 69.0385 18.393 69.7756 18.8373L69.7784 18.839L69.7838 18.8422C70.5007 19.2743 71.2169 19.706 71.8867 20.108C74.1273 21.4527 81.0662 26.6282 81.0662 26.6282C81.0662 26.6282 76.4045 20.8062 75.0432 19.4449C74.8786 19.2803 74.7055 19.1024 74.5235 18.9154L74.5233 18.9151L74.5233 18.9151C73.4637 17.826 72.1028 16.4272 70.3756 15.5553C68.8548 14.7875 65.7081 13.9995 64.501 13.8653ZM47.5359 17.1531L55.5707 14.0836C55.5707 14.0836 62.5875 19.0215 65.6161 23.687C68.4657 28.0769 69.5052 32.1604 69.7 36.4833C69.8439 39.6754 69.0762 44.9436 67.4876 48.1189C65.8989 51.2941 62.8115 54.4937 58.8095 56.0863C54.2234 57.9112 47.8118 58.0797 43.0182 56.9031C38.3169 55.7491 34.2128 53.1365 31.8555 50.9133C29.5679 48.7559 26.5164 44.5831 25.0486 40.8395C23.3031 36.3875 23.2688 31.8894 23.6872 28.0769C24.1056 24.2645 25.3194 21.2967 27.227 17.9694C28.884 15.0793 29.6774 14.43 29.6774 14.43C29.6774 14.43 27.7829 18.3276 26.6825 22.3256C25.2042 27.6964 26.5223 34.033 27.7715 37.0279C28.8313 39.5684 31.5565 42.7021 31.5565 42.7021C31.5565 42.7021 35.0549 46.6592 38.0311 48.1189C41.0022 49.5761 43.389 50.3315 46.6979 50.2855C51.0715 50.2248 54.7232 48.344 57.0917 46.1669C59.5046 43.9488 60.7667 42.1193 61.7745 39.0006C62.7824 35.882 63.1169 31.8398 61.7745 28.0769C60.5874 24.7493 59.3771 22.7133 56.6286 20.4934C53.8159 18.2216 47.5359 17.1531 47.5359 17.1531Z"/>
</mask>
<path fill-rule="evenodd" clip-rule="evenodd" d="M32.756 17.6045C32.6759 17.8346 32.6003 18.0448 32.5297 18.2413C31.9627 19.8176 31.7128 20.5125 32.0337 23.5629C32.0337 23.5629 32.7318 21.0292 35.4642 20.042C38.1965 19.0548 46.027 18.5073 46.027 18.5073C46.027 18.5073 44.036 18.0082 43.6798 16.9725C43.0476 15.1351 44.6728 14.2641 44.6728 14.2641L60.6692 2.88896C59.2527 3.69051 57.9272 4.45897 56.6626 5.19213L56.6619 5.19256L56.6618 5.19264C51.6598 8.0926 47.6108 10.4401 42.6523 12.0974C47.0591 7.40292 50.4897 4.51399 55.8674 3.05176e-05L37.631 13.1808C37.631 13.1808 36.8976 15.3114 35.6447 16.2503C34.7738 16.903 32.756 17.6045 32.756 17.6045ZM38.9338 14.7156C38.2669 15.2132 37.4894 16.4309 37.4894 16.4309C37.4894 16.4309 39.002 16.4344 39.7072 15.7989C40.2375 15.321 40.6491 13.9933 40.6491 13.9933C40.6491 13.9933 39.5953 14.222 38.9338 14.7156ZM46.337 16.2454C46.337 16.2454 50.0225 12.5382 53.3788 11.4604C56.3184 10.5164 63.0386 10.9187 63.0386 10.9187C54.8612 11.7836 52.2993 13.1279 48.2553 15.25C47.6561 15.5644 47.0243 15.8959 46.337 16.2454ZM72.6139 22.5381C67.882 19.5142 57.1759 13.3052 57.1759 13.3052C57.1759 13.3052 62.8057 16.7563 65.7972 19.6893C69.3887 23.2106 71.1749 25.5802 73.3766 30.1025C75.1227 33.6888 76.1448 36.1631 76.5285 39.818C76.9122 43.4728 75.8501 49.0551 75.8501 49.0551C75.8501 49.0551 77.4577 45.1696 78.3339 41.2456C79.2101 37.3217 79.5045 34.262 79.5045 34.262C79.5045 34.262 80.8876 36.3745 81.4098 37.3217C81.932 38.2688 82.569 39.7777 82.569 39.7777C82.569 39.7777 82.992 35.5439 80.3183 30.4936C78.3339 26.7453 75.6898 24.5038 72.6139 22.5381ZM67.3236 23.0093C67.3236 23.0093 72.4071 29.6014 73.9109 34.578C75.0736 38.4254 75.5088 41.7504 75.1506 44.7949C74.8007 47.7698 69.9507 52.1555 67.5365 53.9945C64.4001 56.3836 62.8548 57.3817 62.8548 57.3817C62.8548 57.3817 68.438 52.43 70.1183 46.0421C71.0515 42.4945 71.3281 40.3862 71.2605 36.7185C71.2112 34.0394 71.1351 32.4933 70.4341 29.9072C69.6609 27.0551 67.3236 23.0093 67.3236 23.0093ZM64.501 13.8653C62.4569 13.6382 58.8033 13.3261 58.8033 13.3261C58.8033 13.3261 62.3301 14.6568 63.3688 15.1932C64.4515 15.7522 66.703 16.9897 67.6119 17.5351C68.3007 17.9483 69.0385 18.393 69.7756 18.8373L69.7784 18.839L69.7838 18.8422C70.5007 19.2743 71.2169 19.706 71.8867 20.108C74.1273 21.4527 81.0662 26.6282 81.0662 26.6282C81.0662 26.6282 76.4045 20.8062 75.0432 19.4449C74.8786 19.2803 74.7055 19.1024 74.5235 18.9154L74.5233 18.9151L74.5233 18.9151C73.4637 17.826 72.1028 16.4272 70.3756 15.5553C68.8548 14.7875 65.7081 13.9995 64.501 13.8653ZM47.5359 17.1531L55.5707 14.0836C55.5707 14.0836 62.5875 19.0215 65.6161 23.687C68.4657 28.0769 69.5052 32.1604 69.7 36.4833C69.8439 39.6754 69.0762 44.9436 67.4876 48.1189C65.8989 51.2941 62.8115 54.4937 58.8095 56.0863C54.2234 57.9112 47.8118 58.0797 43.0182 56.9031C38.3169 55.7491 34.2128 53.1365 31.8555 50.9133C29.5679 48.7559 26.5164 44.5831 25.0486 40.8395C23.3031 36.3875 23.2688 31.8894 23.6872 28.0769C24.1056 24.2645 25.3194 21.2967 27.227 17.9694C28.884 15.0793 29.6774 14.43 29.6774 14.43C29.6774 14.43 27.7829 18.3276 26.6825 22.3256C25.2042 27.6964 26.5223 34.033 27.7715 37.0279C28.8313 39.5684 31.5565 42.7021 31.5565 42.7021C31.5565 42.7021 35.0549 46.6592 38.0311 48.1189C41.0022 49.5761 43.389 50.3315 46.6979 50.2855C51.0715 50.2248 54.7232 48.344 57.0917 46.1669C59.5046 43.9488 60.7667 42.1193 61.7745 39.0006C62.7824 35.882 63.1169 31.8398 61.7745 28.0769C60.5874 24.7493 59.3771 22.7133 56.6286 20.4934C53.8159 18.2216 47.5359 17.1531 47.5359 17.1531Z" fill="url(#paint0_linear_799_2180)"/>
<path d="M32.5297 18.2413L33.0421 18.4256L32.5297 18.2413ZM32.756 17.6045L32.5772 17.0901L32.3282 17.1767L32.2417 17.4256L32.756 17.6045ZM32.0337 23.5629L31.4922 23.6199L32.5587 23.7075L32.0337 23.5629ZM35.4642 20.042L35.6492 20.5541L35.4642 20.042ZM46.027 18.5073L46.065 19.0505L46.1594 17.9791L46.027 18.5073ZM43.6798 16.9725L44.1947 16.7954L43.6798 16.9725ZM44.6728 14.2641L44.93 14.7441L44.9604 14.7278L44.9884 14.7079L44.6728 14.2641ZM60.6692 2.88896L60.9847 3.33273L60.401 2.41505L60.6692 2.88896ZM56.6626 5.19213L56.3895 4.72105L56.3892 4.72125L56.6626 5.19213ZM56.6619 5.19256L56.3884 4.72166L56.3839 4.72435L56.6619 5.19256ZM56.6618 5.19264L56.9349 5.66375L56.9398 5.66085L56.6618 5.19264ZM42.6523 12.0974L42.2553 11.7248L42.8249 12.6139L42.6523 12.0974ZM55.8674 3.05176e-05L56.2175 0.417106L55.5485 -0.44129L55.8674 3.05176e-05ZM37.631 13.1808L37.3121 12.7395L37.1723 12.8405L37.1162 13.0036L37.631 13.1808ZM35.6447 16.2503L35.3182 15.8145L35.6447 16.2503ZM37.4894 16.4309L37.0304 16.1378L36.4971 16.973L37.4881 16.9754L37.4894 16.4309ZM38.9338 14.7156L39.2595 15.152H39.2595L38.9338 14.7156ZM39.7072 15.7989L39.3426 15.3944L39.3426 15.3944L39.7072 15.7989ZM40.6491 13.9933L41.1692 14.1546L41.4456 13.2633L40.5337 13.4612L40.6491 13.9933ZM53.3788 11.4604L53.2123 10.942L53.3788 11.4604ZM46.337 16.2454L45.9508 15.8615L46.5838 16.7308L46.337 16.2454ZM63.0386 10.9187L63.0959 11.4602L63.0712 10.3752L63.0386 10.9187ZM48.2553 15.25L48.0023 14.7678H48.0023L48.2553 15.25ZM57.1759 13.3052L57.4491 12.8341L56.8913 13.7694L57.1759 13.3052ZM72.6139 22.5381L72.9071 22.0793L72.6139 22.5381ZM65.7972 19.6893L65.416 20.0781H65.416L65.7972 19.6893ZM73.3766 30.1025L72.8871 30.3409L73.3766 30.1025ZM76.5285 39.818L77.0701 39.7611L76.5285 39.818ZM75.8501 49.0551L75.3151 48.9533L76.3532 49.2633L75.8501 49.0551ZM79.5045 34.262L79.96 33.9637L79.1109 32.6668L78.9624 34.2099L79.5045 34.262ZM81.4098 37.3217L81.8866 37.0587L81.4098 37.3217ZM82.569 39.7777L82.0673 39.9895L83.1108 39.8319L82.569 39.7777ZM80.3183 30.4936L79.837 30.7483L80.3183 30.4936ZM73.9109 34.578L74.4322 34.4205L73.9109 34.578ZM67.3236 23.0093L67.7548 22.6768L66.8521 23.2817L67.3236 23.0093ZM75.1506 44.7949L74.6098 44.7313V44.7313L75.1506 44.7949ZM67.5365 53.9945L67.8665 54.4277L67.5365 53.9945ZM62.8548 57.3817L62.4935 56.9743L63.1503 57.8391L62.8548 57.3817ZM70.1183 46.0421L69.5917 45.9036L70.1183 46.0421ZM71.2605 36.7185L71.805 36.7084L71.2605 36.7185ZM70.4341 29.9072L70.9596 29.7647V29.7647L70.4341 29.9072ZM58.8033 13.3261L58.8496 12.7835L58.611 13.8356L58.8033 13.3261ZM64.501 13.8653L64.5611 13.3241L64.501 13.8653ZM63.3688 15.1932L63.119 15.677L63.3688 15.1932ZM67.6119 17.5351L67.3318 18.002L67.3318 18.002L67.6119 17.5351ZM69.7756 18.8373L70.0572 18.3712L70.0567 18.371L69.7756 18.8373ZM69.7784 18.839L69.4969 19.3051L69.4973 19.3054L69.7784 18.839ZM69.7838 18.8422L69.5027 19.3086L69.5027 19.3086L69.7838 18.8422ZM71.8867 20.108L72.1669 19.6411L71.8867 20.108ZM81.0662 26.6282L80.7407 27.0647L81.4913 26.2879L81.0662 26.6282ZM75.0432 19.4449L74.6581 19.8299L74.6581 19.8299L75.0432 19.4449ZM74.5235 18.9154L74.1276 19.2893L74.1332 19.2951L74.5235 18.9154ZM74.5233 18.9151L74.9192 18.5413L74.9138 18.5356L74.9083 18.5301L74.5233 18.9151ZM74.5233 18.9151L74.1329 19.2949L74.1382 19.3002L74.5233 18.9151ZM70.3756 15.5553L70.1302 16.0414V16.0414L70.3756 15.5553ZM55.5707 14.0836L55.8841 13.6383L55.6471 13.4715L55.3764 13.5749L55.5707 14.0836ZM47.5359 17.1531L47.3416 16.6444L45.4799 17.3556L47.4446 17.6899L47.5359 17.1531ZM65.6161 23.687L66.0728 23.3905L65.6161 23.687ZM69.7 36.4833L70.244 36.4588L69.7 36.4833ZM67.4876 48.1189L67.9746 48.3625L67.4876 48.1189ZM58.8095 56.0863L59.0108 56.5922H59.0108L58.8095 56.0863ZM43.0182 56.9031L42.8884 57.4319L43.0182 56.9031ZM31.8555 50.9133L31.4818 51.3094H31.4819L31.8555 50.9133ZM25.0486 40.8395L25.5556 40.6408H25.5556L25.0486 40.8395ZM23.6872 28.0769L24.2285 28.1363L23.6872 28.0769ZM27.227 17.9694L26.7546 17.6986L27.227 17.9694ZM29.6774 14.43L30.1671 14.6681L29.3325 14.0086L29.6774 14.43ZM26.6825 22.3256L27.2075 22.4702L26.6825 22.3256ZM27.7715 37.0279L28.2741 36.8182L27.7715 37.0279ZM31.5565 42.7021L31.1456 43.0594L31.1485 43.0628L31.5565 42.7021ZM38.0311 48.1189L37.7913 48.6077L37.7913 48.6077L38.0311 48.1189ZM46.6979 50.2855L46.6903 49.7411L46.6979 50.2855ZM57.0917 46.1669L56.7232 45.766L57.0917 46.1669ZM61.7745 39.0006L61.2564 38.8332L61.7745 39.0006ZM61.7745 28.0769L61.2617 28.2598L61.7745 28.0769ZM56.6286 20.4934L56.2865 20.917L56.6286 20.4934ZM33.0421 18.4256C33.1126 18.2293 33.1892 18.0166 33.2703 17.7833L32.2417 17.4256C32.1627 17.6527 32.088 17.8603 32.0173 18.057L33.0421 18.4256ZM32.5753 23.5059C32.4161 21.9936 32.4036 21.1062 32.4891 20.4163C32.5739 19.7328 32.7567 19.219 33.0421 18.4256L32.0173 18.057C31.7357 18.8399 31.5101 19.4617 31.4083 20.2823C31.3074 21.0965 31.3304 22.0818 31.4922 23.6199L32.5753 23.5059ZM35.2791 19.5299C33.78 20.0715 32.838 21.0394 32.2744 21.8659C31.993 22.2786 31.8042 22.6584 31.6848 22.9375C31.625 23.0774 31.5824 23.1928 31.554 23.2754C31.5398 23.3168 31.5292 23.35 31.5218 23.3742C31.5181 23.3862 31.5151 23.396 31.513 23.4034C31.5119 23.4071 31.511 23.4102 31.5103 23.4127C31.51 23.4139 31.5097 23.415 31.5094 23.4159C31.5093 23.4164 31.5092 23.4168 31.5091 23.4172C31.509 23.4174 31.5089 23.4177 31.5089 23.4178C31.5088 23.418 31.5088 23.4183 32.0337 23.5629C32.5587 23.7075 32.5586 23.7078 32.5586 23.708C32.5586 23.708 32.5585 23.7082 32.5585 23.7083C32.5584 23.7086 32.5584 23.7088 32.5583 23.7089C32.5582 23.7092 32.5582 23.7094 32.5582 23.7094C32.5582 23.7095 32.5583 23.7089 32.5587 23.7078C32.5593 23.7055 32.5607 23.701 32.5627 23.6942C32.5669 23.6808 32.5739 23.6586 32.5841 23.6288C32.6046 23.569 32.6378 23.4787 32.6862 23.3656C32.7831 23.1389 32.9396 22.8235 33.1742 22.4794C33.6427 21.7923 34.4159 20.9997 35.6492 20.5541L35.2791 19.5299ZM46.027 18.5073C45.989 17.9641 45.989 17.9641 45.9889 17.9641C45.9888 17.9641 45.9887 17.9641 45.9886 17.9641C45.9883 17.9641 45.9879 17.9641 45.9874 17.9642C45.9864 17.9643 45.9849 17.9644 45.9829 17.9645C45.979 17.9648 45.9732 17.9652 45.9656 17.9657C45.9504 17.9668 45.9279 17.9684 45.8986 17.9706C45.84 17.9749 45.7538 17.9813 45.6434 17.9898C45.4225 18.0068 45.1044 18.0322 44.7142 18.0657C43.9341 18.1328 42.8648 18.2325 41.709 18.3634C39.4237 18.6221 36.7164 19.0106 35.2791 19.5299L35.6492 20.5541C36.9443 20.0862 39.5185 19.7074 41.8315 19.4455C42.9749 19.3161 44.034 19.2172 44.8074 19.1508C45.194 19.1175 45.509 19.0924 45.727 19.0756C45.836 19.0672 45.9208 19.0609 45.9782 19.0567C46.0069 19.0546 46.0287 19.053 46.0433 19.052C46.0506 19.0515 46.0561 19.0511 46.0597 19.0508C46.0616 19.0507 46.0629 19.0506 46.0638 19.0506C46.0642 19.0505 46.0645 19.0505 46.0648 19.0505C46.0649 19.0505 46.0649 19.0505 46.065 19.0505C46.065 19.0505 46.065 19.0505 46.027 18.5073ZM43.1649 17.1497C43.2994 17.5407 43.5735 17.8443 43.8534 18.0718C44.1366 18.302 44.4615 18.4833 44.7559 18.6213C45.0526 18.7604 45.3344 18.8629 45.5408 18.9306C45.6446 18.9646 45.7307 18.9902 45.7919 19.0076C45.8225 19.0163 45.847 19.0229 45.8644 19.0276C45.8731 19.0299 45.88 19.0317 45.8851 19.033C45.8876 19.0337 45.8897 19.0342 45.8913 19.0346C45.8921 19.0348 45.8928 19.035 45.8933 19.0351C45.8936 19.0352 45.8938 19.0353 45.8941 19.0353C45.8942 19.0353 45.8943 19.0354 45.8944 19.0354C45.8945 19.0354 45.8946 19.0354 46.027 18.5073C46.1594 17.9791 46.1595 17.9791 46.1596 17.9791C46.1597 17.9791 46.1597 17.9792 46.1598 17.9792C46.1599 17.9792 46.16 17.9792 46.16 17.9792C46.1601 17.9792 46.16 17.9792 46.1598 17.9792C46.1595 17.9791 46.1587 17.9789 46.1575 17.9786C46.155 17.9779 46.1507 17.9768 46.1448 17.9752C46.1328 17.9721 46.1142 17.967 46.0896 17.96C46.0405 17.9461 45.9683 17.9246 45.8799 17.8956C45.7019 17.8373 45.4637 17.7504 45.2181 17.6352C44.9702 17.519 44.7306 17.3814 44.5403 17.2267C44.3466 17.0693 44.2383 16.9221 44.1947 16.7954L43.1649 17.1497ZM44.6728 14.2641C44.4156 13.7842 44.4154 13.7843 44.4151 13.7845C44.415 13.7845 44.4148 13.7847 44.4146 13.7848C44.4142 13.785 44.4138 13.7852 44.4134 13.7854C44.4125 13.7859 44.4116 13.7864 44.4105 13.787C44.4084 13.7881 44.4059 13.7895 44.403 13.7911C44.3972 13.7943 44.3899 13.7985 44.3811 13.8036C44.3637 13.8137 44.3405 13.8276 44.3126 13.8453C44.2569 13.8806 44.1817 13.9315 44.0953 13.9984C43.9239 14.1312 43.7009 14.3328 43.4998 14.6078C43.0844 15.1756 42.7819 16.0366 43.1649 17.1497L44.1947 16.7954C43.9454 16.071 44.1395 15.5778 44.3787 15.2508C44.5048 15.0784 44.6486 14.9474 44.7622 14.8594C44.8183 14.816 44.8652 14.7845 44.8959 14.765C44.9112 14.7553 44.9223 14.7487 44.9283 14.7452C44.9313 14.7434 44.9331 14.7425 44.9334 14.7423C44.9335 14.7422 44.9334 14.7423 44.9328 14.7426C44.9325 14.7427 44.9322 14.7429 44.9317 14.7432C44.9315 14.7433 44.9312 14.7435 44.9309 14.7436C44.9308 14.7437 44.9306 14.7438 44.9305 14.7438C44.9303 14.744 44.93 14.7441 44.6728 14.2641ZM60.3536 2.4452L44.3573 13.8204L44.9884 14.7079L60.9847 3.33273L60.3536 2.4452ZM56.9358 5.66321C58.2006 4.9299 59.5237 4.16281 60.9373 3.36288L60.401 2.41505C58.9817 3.21821 57.6538 3.98805 56.3895 4.72105L56.9358 5.66321ZM56.9354 5.66343L56.9361 5.663L56.3892 4.72125L56.3884 4.72168L56.9354 5.66343ZM56.9398 5.66085L56.9399 5.66077L56.3839 4.72435L56.3838 4.72443L56.9398 5.66085ZM42.8249 12.6139C47.8443 10.9362 51.9399 8.55965 56.9349 5.66372L56.3886 4.72156C51.3798 7.62555 47.3773 9.94401 42.4797 11.581L42.8249 12.6139ZM55.5174 -0.417045C50.1397 4.09685 46.6865 7.00417 42.2553 11.7248L43.0493 12.4701C47.4316 7.80168 50.8397 4.93113 56.2175 0.417106L55.5174 -0.417045ZM37.95 13.6221L56.1864 0.441351L55.5485 -0.44129L37.3121 12.7395L37.95 13.6221ZM35.9713 16.686C36.6975 16.1418 37.2399 15.2856 37.5902 14.6158C37.7696 14.2729 37.9073 13.9617 38.0003 13.7358C38.047 13.6226 38.0827 13.5302 38.107 13.4651C38.1192 13.4326 38.1286 13.4069 38.1351 13.3887C38.1383 13.3797 38.1409 13.3725 38.1427 13.3674C38.1436 13.3648 38.1443 13.3627 38.1448 13.3612C38.1451 13.3604 38.1453 13.3597 38.1455 13.3592C38.1456 13.3589 38.1457 13.3587 38.1458 13.3585C38.1458 13.3584 38.1458 13.3583 38.1458 13.3582C38.1459 13.3581 38.1459 13.358 37.631 13.1808C37.1162 13.0036 37.1162 13.0035 37.1162 13.0034C37.1162 13.0034 37.1163 13.0033 37.1163 13.0033C37.1163 13.0032 37.1163 13.0032 37.1163 13.0032C37.1163 13.0032 37.1163 13.0033 37.1162 13.0035C37.116 13.004 37.1157 13.005 37.1151 13.0065C37.1141 13.0095 37.1124 13.0144 37.1099 13.0212C37.1051 13.0347 37.0975 13.0557 37.0871 13.0832C37.0665 13.1384 37.0351 13.2197 36.9934 13.321C36.9098 13.5239 36.7858 13.804 36.6252 14.1111C36.2956 14.7414 35.8449 15.4199 35.3182 15.8145L35.9713 16.686ZM32.756 17.6045C32.9348 18.1188 32.9348 18.1188 32.9349 18.1188C32.9349 18.1188 32.935 18.1187 32.935 18.1187C32.9351 18.1187 32.9353 18.1186 32.9355 18.1186C32.9358 18.1184 32.9363 18.1183 32.9369 18.1181C32.9381 18.1177 32.9397 18.1171 32.9419 18.1163C32.9462 18.1148 32.9523 18.1127 32.9603 18.1098C32.9762 18.1042 32.9992 18.096 33.0287 18.0854C33.0875 18.0643 33.172 18.0335 33.2759 17.9946C33.4834 17.9169 33.7695 17.8062 34.0842 17.6744C34.6965 17.4178 35.476 17.0572 35.9713 16.686L35.3182 15.8145C34.9425 16.096 34.2776 16.4125 33.6633 16.6699C33.3646 16.795 33.0919 16.9005 32.8938 16.9747C32.7949 17.0118 32.715 17.0409 32.6601 17.0607C32.6326 17.0705 32.6115 17.078 32.5974 17.083C32.5904 17.0855 32.5851 17.0874 32.5817 17.0886C32.58 17.0892 32.5788 17.0896 32.578 17.0899C32.5776 17.09 32.5774 17.0901 32.5772 17.0901C32.5771 17.0901 32.5771 17.0902 32.5771 17.0902C32.5771 17.0902 32.5771 17.0902 32.5771 17.0902C32.5771 17.0902 32.5772 17.0901 32.756 17.6045ZM37.4894 16.4309C37.9483 16.7239 37.9483 16.724 37.9482 16.724C37.9482 16.724 37.9482 16.724 37.9482 16.724C37.9482 16.7241 37.9482 16.7241 37.9482 16.7241C37.9482 16.724 37.9483 16.7239 37.9484 16.7238C37.9486 16.7234 37.949 16.7228 37.9496 16.7219C37.9508 16.7201 37.9526 16.7172 37.9552 16.7132C37.9604 16.7052 37.9683 16.693 37.9789 16.677C37.9999 16.6451 38.0311 16.5982 38.0709 16.54C38.1505 16.4235 38.2633 16.2632 38.3955 16.0886C38.6705 15.7257 38.9925 15.3512 39.2595 15.152L38.6082 14.2791C38.2083 14.5775 37.8081 15.0606 37.5275 15.431C37.382 15.623 37.2587 15.7983 37.1717 15.9256C37.1281 15.9894 37.0934 16.0415 37.0693 16.0781C37.0572 16.0964 37.0478 16.1108 37.0413 16.1209C37.038 16.126 37.0354 16.13 37.0336 16.1328C37.0327 16.1342 37.032 16.1353 37.0315 16.1362C37.0312 16.1366 37.031 16.1369 37.0308 16.1372C37.0307 16.1373 37.0306 16.1375 37.0306 16.1376C37.0305 16.1376 37.0305 16.1377 37.0305 16.1377C37.0305 16.1377 37.0304 16.1378 37.4894 16.4309ZM39.3426 15.3944C39.112 15.6023 38.6911 15.7408 38.2434 15.8162C38.0334 15.8516 37.8417 15.8693 37.7026 15.878C37.6334 15.8824 37.5781 15.8845 37.5412 15.8854C37.5227 15.8859 37.5089 15.8862 37.5003 15.8863C37.496 15.8863 37.493 15.8863 37.4913 15.8863C37.4905 15.8863 37.49 15.8863 37.4899 15.8863C37.4899 15.8863 37.4899 15.8863 37.49 15.8863C37.4901 15.8863 37.4902 15.8863 37.4903 15.8863C37.4903 15.8863 37.4904 15.8863 37.4904 15.8863C37.4905 15.8863 37.4906 15.8863 37.4894 16.4309C37.4881 16.9754 37.4882 16.9754 37.4883 16.9754C37.4884 16.9754 37.4885 16.9754 37.4886 16.9754C37.4888 16.9754 37.489 16.9754 37.4892 16.9754C37.4897 16.9754 37.4903 16.9754 37.491 16.9754C37.4923 16.9754 37.494 16.9754 37.4961 16.9754C37.5002 16.9754 37.5058 16.9753 37.5128 16.9752C37.5266 16.9751 37.546 16.9748 37.5703 16.9741C37.6188 16.9728 37.6872 16.9702 37.7708 16.9649C37.9374 16.9545 38.168 16.9333 38.4243 16.8902C38.9092 16.8085 39.5972 16.6311 40.0717 16.2034L39.3426 15.3944ZM40.6491 13.9933C40.129 13.8321 40.129 13.832 40.1291 13.8319C40.1291 13.8319 40.1291 13.8319 40.1291 13.8319C40.1291 13.8318 40.1291 13.8318 40.1291 13.8318C40.1291 13.8318 40.1291 13.8318 40.1291 13.832C40.129 13.8322 40.1288 13.8328 40.1285 13.8337C40.128 13.8355 40.127 13.8385 40.1257 13.8426C40.123 13.8509 40.1189 13.8637 40.1133 13.8806C40.1022 13.9144 40.0853 13.9642 40.0634 14.0259C40.0194 14.1498 39.9558 14.319 39.8771 14.5009C39.7074 14.894 39.5105 15.2431 39.3426 15.3944L40.0717 16.2034C40.4341 15.8768 40.7083 15.3231 40.8769 14.9328C40.9675 14.7232 41.0399 14.5306 41.0896 14.3905C41.1146 14.3203 41.1341 14.2627 41.1475 14.222C41.1542 14.2016 41.1594 14.1855 41.1631 14.1741C41.1649 14.1684 41.1663 14.1639 41.1673 14.1606C41.1679 14.1589 41.1683 14.1576 41.1686 14.1566C41.1687 14.1561 41.1689 14.1557 41.169 14.1554C41.169 14.1552 41.1691 14.155 41.1691 14.1549C41.1691 14.1548 41.1692 14.1548 41.1692 14.1547C41.1692 14.1546 41.1692 14.1546 40.6491 13.9933ZM39.2595 15.152C39.5229 14.9554 39.8891 14.7967 40.2164 14.6844C40.3751 14.6299 40.515 14.5894 40.6147 14.5628C40.6643 14.5496 40.7035 14.5399 40.7295 14.5336C40.7425 14.5305 40.7521 14.5283 40.7581 14.5269C40.7611 14.5262 40.7631 14.5258 40.7642 14.5255C40.7648 14.5254 40.7651 14.5254 40.7652 14.5253C40.7652 14.5253 40.7652 14.5253 40.7651 14.5254C40.765 14.5254 40.765 14.5254 40.7649 14.5254C40.7648 14.5254 40.7648 14.5254 40.7647 14.5254C40.7647 14.5254 40.7646 14.5255 40.6491 13.9933C40.5337 13.4612 40.5336 13.4612 40.5335 13.4612C40.5334 13.4612 40.5334 13.4612 40.5333 13.4613C40.5331 13.4613 40.533 13.4613 40.5328 13.4614C40.5325 13.4614 40.532 13.4615 40.5316 13.4616C40.5306 13.4618 40.5294 13.4621 40.5279 13.4624C40.525 13.4631 40.5211 13.464 40.5162 13.4651C40.5064 13.4673 40.4928 13.4705 40.4756 13.4746C40.4414 13.4828 40.3931 13.4948 40.3336 13.5107C40.215 13.5424 40.0501 13.59 39.8627 13.6543C39.4977 13.7797 39.0062 13.9821 38.6082 14.2791L39.2595 15.152ZM53.2123 10.942C51.4377 11.5118 49.6145 12.7589 48.2613 13.8302C47.5784 14.3708 47.0028 14.8767 46.5975 15.2477C46.3948 15.4334 46.2343 15.5856 46.124 15.692C46.0688 15.7452 46.0261 15.787 45.9969 15.8157C45.9823 15.8301 45.9711 15.8412 45.9634 15.8489C45.9595 15.8528 45.9565 15.8558 45.9544 15.8579C45.9534 15.8589 45.9526 15.8598 45.952 15.8604C45.9516 15.8607 45.9514 15.8609 45.9512 15.8611C45.9511 15.8612 45.951 15.8613 45.951 15.8614C45.9509 15.8614 45.9508 15.8615 46.337 16.2454C46.7231 16.6293 46.7231 16.6294 46.7231 16.6294C46.7231 16.6294 46.7231 16.6294 46.7231 16.6294C46.7231 16.6294 46.7232 16.6293 46.7233 16.6291C46.7236 16.6288 46.7242 16.6283 46.7249 16.6276C46.7264 16.6261 46.7287 16.6238 46.7319 16.6206C46.7383 16.6142 46.7482 16.6044 46.7614 16.5913C46.7879 16.5653 46.8277 16.5263 46.8798 16.476C46.9841 16.3755 47.1378 16.2297 47.333 16.0509C47.7237 15.6932 48.2792 15.2049 48.9372 14.684C50.2658 13.6323 51.9635 12.4868 53.5452 11.9789L53.2123 10.942ZM63.0386 10.9187C63.0712 10.3752 63.0711 10.3752 63.071 10.3752C63.0709 10.3752 63.0708 10.3751 63.0707 10.3751C63.0704 10.3751 63.0701 10.3751 63.0696 10.3751C63.0686 10.375 63.0673 10.3749 63.0656 10.3748C63.0621 10.3746 63.057 10.3743 63.0504 10.374C63.0371 10.3732 63.0175 10.3721 62.992 10.3707C62.941 10.3679 62.8663 10.364 62.7704 10.3594C62.5786 10.3501 62.302 10.338 61.9611 10.3264C61.2798 10.3033 60.3399 10.2823 59.3064 10.2911C57.2658 10.3084 54.7716 10.4412 53.2123 10.942L53.5452 11.9789C54.9255 11.5356 57.2612 11.3976 59.3157 11.3801C60.3298 11.3715 61.2536 11.392 61.9242 11.4148C62.2593 11.4262 62.5306 11.4381 62.7178 11.4472C62.8114 11.4517 62.884 11.4555 62.9329 11.4582C62.9573 11.4595 62.9759 11.4605 62.9882 11.4612C62.9943 11.4616 62.9989 11.4619 63.0019 11.462C63.0034 11.4621 63.0045 11.4622 63.0052 11.4622C63.0056 11.4622 63.0058 11.4623 63.006 11.4623C63.006 11.4623 63.0061 11.4623 63.0061 11.4623C63.0061 11.4623 63.0061 11.4623 63.0386 10.9187ZM48.5083 15.7322C50.5332 14.6696 52.1472 13.8239 54.2663 13.1305C56.3855 12.437 59.0295 11.8903 63.0959 11.4602L62.9814 10.3772C58.8704 10.812 56.1447 11.3699 53.9276 12.0954C51.7104 12.8209 50.0214 13.7083 48.0023 14.7678L48.5083 15.7322ZM46.5838 16.7308C47.2747 16.3795 47.9094 16.0464 48.5083 15.7322L48.0023 14.7678C47.4028 15.0824 46.774 15.4123 46.0902 15.76L46.5838 16.7308ZM57.1759 13.3052C56.9027 13.7762 56.9028 13.7763 56.9029 13.7763C56.9029 13.7763 56.903 13.7764 56.9032 13.7765C56.9035 13.7767 56.904 13.777 56.9047 13.7773C56.9059 13.7781 56.9079 13.7792 56.9104 13.7807C56.9156 13.7837 56.9233 13.7881 56.9334 13.7941C56.9538 13.8059 56.9841 13.8234 57.0238 13.8465C57.1033 13.8927 57.2205 13.9608 57.3714 14.0486C57.6731 14.2241 58.1096 14.4783 58.6481 14.7928C59.7252 15.4218 61.2105 16.292 62.8435 17.2565C66.1123 19.1872 69.9639 21.4909 72.3206 22.9969L72.9071 22.0793C70.532 20.5615 66.6647 18.2487 63.3974 16.3188C61.7624 15.3532 60.2755 14.4821 59.1973 13.8524C58.6582 13.5375 58.2212 13.283 57.919 13.1072C57.7679 13.0193 57.6505 12.9511 57.5708 12.9048C57.531 12.8817 57.5006 12.864 57.4801 12.8521C57.4699 12.8462 57.4621 12.8417 57.457 12.8387C57.4544 12.8372 57.4524 12.8361 57.4511 12.8353C57.4504 12.8349 57.4499 12.8346 57.4496 12.8344C57.4494 12.8343 57.4493 12.8343 57.4492 12.8342C57.4491 12.8342 57.4491 12.8341 57.1759 13.3052ZM66.1784 19.3004C64.6476 17.7996 62.46 16.1818 60.674 14.9492C59.7774 14.3304 58.9751 13.804 58.3968 13.4322C58.1076 13.2463 57.8741 13.0989 57.7127 12.9978C57.632 12.9472 57.5693 12.9082 57.5266 12.8817C57.5052 12.8685 57.4889 12.8584 57.4778 12.8516C57.4722 12.8482 57.468 12.8456 57.4651 12.8438C57.4637 12.8429 57.4626 12.8422 57.4618 12.8417C57.4614 12.8415 57.4611 12.8413 57.4609 12.8412C57.4608 12.8411 57.4607 12.8411 57.4606 12.841C57.4606 12.841 57.4605 12.8409 57.1759 13.3052C56.8913 13.7694 56.8913 13.7694 56.8913 13.7694C56.8914 13.7695 56.8914 13.7695 56.8915 13.7695C56.8916 13.7696 56.8918 13.7697 56.8921 13.7699C56.8927 13.7703 56.8936 13.7708 56.8949 13.7716C56.8974 13.7732 56.9013 13.7756 56.9065 13.7788C56.9169 13.7852 56.9325 13.7948 56.9531 13.8076C56.9944 13.8331 57.0555 13.8711 57.1346 13.9207C57.2928 14.0197 57.5225 14.1649 57.8078 14.3483C58.3786 14.7152 59.1707 15.2349 60.0555 15.8455C61.8323 17.0717 63.9553 18.646 65.416 20.0781L66.1784 19.3004ZM73.8662 29.8641C71.6347 25.2806 69.81 22.8611 66.1784 19.3004L65.416 20.0781C68.9674 23.5601 70.7151 25.8798 72.8871 30.3409L73.8662 29.8641ZM77.0701 39.7611C76.6764 36.0112 75.6212 33.4687 73.8662 29.8641L72.8871 30.3409C74.6242 33.9089 75.6132 36.315 75.987 39.8748L77.0701 39.7611ZM75.8501 49.0551C76.385 49.1568 76.385 49.1568 76.385 49.1567C76.385 49.1566 76.3851 49.1565 76.3851 49.1564C76.3851 49.1562 76.3852 49.1558 76.3853 49.1554C76.3854 49.1546 76.3856 49.1535 76.3859 49.152C76.3865 49.149 76.3873 49.1447 76.3883 49.1391C76.3904 49.1279 76.3935 49.1115 76.3974 49.09C76.4053 49.0471 76.4168 48.9841 76.4311 48.903C76.4599 48.7408 76.5003 48.5057 76.5476 48.2124C76.6421 47.6261 76.7641 46.8062 76.874 45.8706C77.0925 44.0103 77.2685 41.6513 77.0701 39.7611L75.987 39.8748C76.1722 41.6394 76.009 43.899 75.7924 45.7436C75.6847 46.6604 75.5651 47.4644 75.4725 48.0391C75.4261 48.3263 75.3866 48.5558 75.3588 48.7131C75.3448 48.7918 75.3338 48.8523 75.3264 48.893C75.3226 48.9133 75.3198 48.9286 75.3179 48.9388C75.3169 48.9438 75.3162 48.9476 75.3158 48.95C75.3155 48.9512 75.3154 48.9521 75.3153 48.9527C75.3152 48.9529 75.3152 48.9531 75.3152 48.9532C75.3151 48.9533 75.3151 48.9533 75.3151 48.9533C75.3151 48.9533 75.3151 48.9533 75.8501 49.0551ZM77.8025 41.1269C77.3708 43.0603 76.7572 44.9907 76.2494 46.442C75.996 47.1666 75.7697 47.7694 75.607 48.1904C75.5257 48.4009 75.4603 48.5659 75.4154 48.6778C75.393 48.7338 75.3757 48.7765 75.3641 48.805C75.3583 48.8192 75.3539 48.8299 75.351 48.8369C75.3496 48.8404 75.3485 48.843 75.3478 48.8447C75.3475 48.8455 75.3472 48.8461 75.3471 48.8465C75.347 48.8467 75.3469 48.8468 75.3469 48.8469C75.3469 48.8469 75.3469 48.8469 75.3469 48.8469C75.3469 48.8469 75.3469 48.8469 75.8501 49.0551C76.3532 49.2633 76.3533 49.2632 76.3533 49.2631C76.3533 49.2631 76.3533 49.263 76.3534 49.2629C76.3534 49.2627 76.3535 49.2625 76.3537 49.2622C76.3539 49.2616 76.3542 49.2608 76.3547 49.2598C76.3555 49.2577 76.3568 49.2546 76.3584 49.2507C76.3617 49.2428 76.3664 49.2312 76.3726 49.216C76.385 49.1856 76.403 49.141 76.4263 49.0831C76.4727 48.9672 76.5398 48.798 76.6229 48.5829C76.789 48.1528 77.0195 47.5389 77.2774 46.8016C77.7925 45.3292 78.4209 43.3549 78.8654 41.3643L77.8025 41.1269ZM79.5045 34.262C78.9624 34.2099 78.9624 34.2098 78.9624 34.2098C78.9624 34.2098 78.9624 34.2098 78.9624 34.2098C78.9624 34.2099 78.9624 34.21 78.9624 34.2101C78.9624 34.2103 78.9624 34.2108 78.9623 34.2114C78.9622 34.2127 78.962 34.2147 78.9617 34.2174C78.9612 34.2228 78.9603 34.2312 78.9592 34.2424C78.9569 34.2648 78.9534 34.2986 78.9487 34.3433C78.9391 34.4326 78.9244 34.5654 78.904 34.7373C78.8633 35.0811 78.7997 35.5813 78.7089 36.2037C78.5273 37.449 78.237 39.1811 77.8025 41.1269L78.8654 41.3643C79.3071 39.3861 79.602 37.6265 79.7866 36.3609C79.8789 35.7279 79.9437 35.218 79.9855 34.8655C80.0064 34.6893 80.0216 34.5523 80.0316 34.459C80.0365 34.4124 80.0402 34.3766 80.0427 34.3523C80.0439 34.3401 80.0449 34.3308 80.0455 34.3244C80.0458 34.3213 80.046 34.3188 80.0462 34.3171C80.0463 34.3162 80.0464 34.3156 80.0464 34.3151C80.0464 34.3148 80.0464 34.3146 80.0465 34.3145C80.0465 34.3144 80.0465 34.3143 80.0465 34.3143C80.0465 34.3142 80.0465 34.3142 79.5045 34.262ZM81.8866 37.0587C81.6161 36.568 81.1308 35.7893 80.7208 35.1445C80.5143 34.8196 80.3242 34.5247 80.1858 34.3109C80.1166 34.204 80.0602 34.1174 80.0212 34.0574C80.0016 34.0274 79.9864 34.0041 79.976 33.9882C79.9708 33.9802 79.9669 33.9742 79.9642 33.9701C79.9628 33.968 79.9618 33.9664 79.9611 33.9654C79.9608 33.9649 79.9605 33.9645 79.9603 33.9642C79.9602 33.964 79.9602 33.9639 79.9601 33.9639C79.9601 33.9638 79.9601 33.9638 79.9601 33.9638C79.96 33.9638 79.96 33.9637 79.5045 34.262C79.0489 34.5603 79.0489 34.5603 79.0489 34.5603C79.0489 34.5603 79.0489 34.5603 79.0489 34.5604C79.049 34.5604 79.049 34.5605 79.0491 34.5606C79.0493 34.5609 79.0495 34.5612 79.0498 34.5617C79.0505 34.5627 79.0514 34.5642 79.0527 34.5661C79.0553 34.5701 79.0592 34.576 79.0642 34.5838C79.0744 34.5993 79.0894 34.6223 79.1087 34.6519C79.1473 34.7111 79.2031 34.7969 79.2717 34.9029C79.4089 35.1148 79.5973 35.4072 79.8018 35.7288C80.214 36.3771 80.6813 37.1282 80.9329 37.5846L81.8866 37.0587ZM82.569 39.7777C83.0706 39.5659 83.0706 39.5659 83.0706 39.5659C83.0706 39.5659 83.0706 39.5658 83.0706 39.5658C83.0706 39.5657 83.0705 39.5656 83.0705 39.5655C83.0704 39.5653 83.0702 39.565 83.0701 39.5646C83.0697 39.5638 83.0692 39.5626 83.0686 39.561C83.0673 39.558 83.0654 39.5535 83.0629 39.5476C83.0579 39.536 83.0507 39.5189 83.0413 39.4969C83.0225 39.4529 82.9951 39.3894 82.9607 39.3102C82.892 39.152 82.7949 38.9311 82.6812 38.6802C82.4554 38.1817 82.1585 37.5518 81.8866 37.0587L80.9329 37.5846C81.1833 38.0386 81.4659 38.6367 81.6892 39.1296C81.8001 39.3742 81.8948 39.5898 81.9619 39.7441C81.9954 39.8212 82.0219 39.8829 82.0399 39.9252C82.049 39.9463 82.0559 39.9626 82.0605 39.9735C82.0628 39.9789 82.0646 39.983 82.0657 39.9857C82.0663 39.987 82.0667 39.988 82.067 39.9887C82.0671 39.989 82.0672 39.9892 82.0673 39.9894C82.0673 39.9894 82.0673 39.9895 82.0673 39.9895C82.0673 39.9895 82.0673 39.9895 82.0673 39.9895C82.0673 39.9895 82.0673 39.9895 82.569 39.7777ZM79.837 30.7483C81.1387 33.207 81.6852 35.4643 81.9067 37.1025C82.0174 37.9215 82.0468 38.5848 82.0488 39.0397C82.0498 39.2671 82.044 39.4422 82.0381 39.5585C82.0352 39.6166 82.0322 39.66 82.0301 39.6878C82.0291 39.7017 82.0282 39.7117 82.0277 39.7177C82.0274 39.7207 82.0272 39.7227 82.0272 39.7237C82.0271 39.7242 82.0271 39.7244 82.0271 39.7244C82.0271 39.7244 82.0271 39.7243 82.0271 39.7242C82.0271 39.7241 82.0271 39.724 82.0271 39.7239C82.0271 39.7238 82.0272 39.7236 82.569 39.7777C83.1108 39.8319 83.1108 39.8316 83.1109 39.8314C83.1109 39.8313 83.1109 39.8311 83.1109 39.8309C83.111 39.8305 83.111 39.83 83.1111 39.8295C83.1112 39.8285 83.1113 39.8272 83.1114 39.8256C83.1117 39.8225 83.1121 39.8183 83.1126 39.8132C83.1135 39.8028 83.1147 39.7885 83.1161 39.7701C83.1188 39.7334 83.1224 39.6809 83.1258 39.6134C83.1326 39.4784 83.1389 39.2833 83.1378 39.0348C83.1356 38.5381 83.1036 37.8273 82.9859 36.9565C82.7504 35.2152 82.1716 32.8304 80.7995 30.2388L79.837 30.7483ZM72.3206 22.9969C75.3506 24.9332 77.9121 27.1123 79.837 30.7483L80.7995 30.2388C78.7558 26.3784 76.029 24.0743 72.9071 22.0793L72.3206 22.9969ZM74.4322 34.4205C73.6571 31.8556 71.9748 28.9102 70.5114 26.633C69.7757 25.4883 69.0877 24.5008 68.5835 23.7993C68.3313 23.4484 68.1249 23.1687 67.9812 22.9764C67.9093 22.8802 67.8531 22.8058 67.8146 22.7552C67.7954 22.7299 67.7806 22.7105 67.7706 22.6974C67.7655 22.6908 67.7617 22.6858 67.759 22.6823C67.7577 22.6806 67.7567 22.6793 67.756 22.6784C67.7556 22.6779 67.7554 22.6775 67.7551 22.6773C67.755 22.6772 67.755 22.677 67.7549 22.677C67.7548 22.6769 67.7548 22.6768 67.3236 23.0093C66.8924 23.3418 66.8924 23.3418 66.8924 23.3418C66.8924 23.3419 66.8924 23.3419 66.8925 23.342C66.8926 23.3421 66.8927 23.3423 66.893 23.3427C66.8935 23.3433 66.8943 23.3444 66.8955 23.3459C66.8977 23.3488 66.9012 23.3533 66.9058 23.3594C66.9151 23.3715 66.929 23.3898 66.9474 23.414C66.9842 23.4624 67.0387 23.5344 67.1087 23.6282C67.2489 23.8158 67.4513 24.09 67.6992 24.4349C68.1952 25.1249 68.872 26.0965 69.5952 27.2218C71.0495 29.4848 72.6609 32.3238 73.3897 34.7356L74.4322 34.4205ZM75.6914 44.8586C76.0611 41.7162 75.6083 38.3127 74.4322 34.4205L73.3897 34.7356C74.5388 38.5382 74.9565 41.7846 74.6098 44.7313L75.6914 44.8586ZM67.8665 54.4277C69.0936 53.493 70.9348 51.9154 72.5189 50.1888C73.3111 49.3254 74.0485 48.4144 74.6133 47.5194C75.1732 46.6322 75.5902 45.7194 75.6914 44.8585L74.6098 44.7313C74.5361 45.3579 74.2157 46.1088 73.6923 46.9382C73.1739 47.7596 72.4823 48.6178 71.7164 49.4525C70.1845 51.1222 68.3937 52.6571 67.2066 53.5613L67.8665 54.4277ZM62.8548 57.3817C63.1503 57.8391 63.1503 57.8391 63.1503 57.8391C63.1504 57.8391 63.1504 57.839 63.1505 57.839C63.1506 57.8389 63.1507 57.8389 63.1508 57.8388C63.1511 57.8386 63.1515 57.8383 63.152 57.838C63.1529 57.8374 63.1543 57.8365 63.156 57.8354C63.1594 57.8332 63.1643 57.83 63.1707 57.8258C63.1836 57.8174 63.2025 57.805 63.2275 57.7885C63.2774 57.7555 63.3515 57.7062 63.45 57.6397C63.6469 57.5068 63.941 57.3053 64.333 57.0292C65.1172 56.477 66.2931 55.6262 67.8665 54.4277L67.2066 53.5613C65.6436 54.7519 64.4786 55.5947 63.706 56.1388C63.3196 56.4109 63.0314 56.6083 62.8406 56.7372C62.7451 56.8016 62.674 56.8489 62.6272 56.8798C62.6038 56.8953 62.5864 56.9067 62.5751 56.9141C62.5695 56.9178 62.5653 56.9204 62.5627 56.9222C62.5614 56.923 62.5605 56.9236 62.5599 56.924C62.5596 56.9242 62.5594 56.9243 62.5593 56.9243C62.5593 56.9244 62.5593 56.9244 62.5593 56.9244L62.5593 56.9244C62.5593 56.9243 62.5594 56.9243 62.8548 57.3817ZM69.5917 45.9036C68.7783 48.9958 67.0119 51.7627 65.4289 53.7702C64.6399 54.7707 63.9026 55.575 63.3635 56.1282C63.0941 56.4046 62.8745 56.618 62.7233 56.7614C62.6477 56.833 62.5892 56.8872 62.5501 56.923C62.5306 56.9409 62.5159 56.9542 62.5064 56.9628C62.5016 56.9671 62.4981 56.9702 62.496 56.9721C62.4949 56.9731 62.4941 56.9738 62.4937 56.9741C62.4935 56.9743 62.4934 56.9744 62.4934 56.9745C62.4933 56.9745 62.4934 56.9744 62.4934 56.9745C62.4934 56.9744 62.4935 56.9743 62.8548 57.3817C63.2161 57.7891 63.2162 57.789 63.2164 57.7889C63.2164 57.7888 63.2166 57.7887 63.2168 57.7885C63.2171 57.7883 63.2174 57.7879 63.2179 57.7875C63.2189 57.7867 63.2201 57.7855 63.2217 57.7841C63.225 57.7812 63.2295 57.7771 63.2354 57.7719C63.2471 57.7613 63.2639 57.7461 63.2857 57.7261C63.3292 57.6863 63.3923 57.6278 63.4727 57.5516C63.6333 57.3993 63.8631 57.1758 64.1434 56.8883C64.7037 56.3134 65.4671 55.4805 66.284 54.4446C67.9126 52.3793 69.778 49.4764 70.6449 46.1807L69.5917 45.9036ZM70.7161 36.7285C70.7827 40.3432 70.5129 42.4015 69.5917 45.9036L70.6449 46.1807C71.5901 42.5875 71.8735 40.4292 71.805 36.7084L70.7161 36.7285ZM69.9085 30.0497C70.5923 32.5719 70.6671 34.066 70.7161 36.7285L71.805 36.7084C71.7553 34.0129 71.678 32.4148 70.9596 29.7647L69.9085 30.0497ZM67.3236 23.0093C66.8521 23.2817 66.8521 23.2817 66.8521 23.2817C66.8521 23.2817 66.8521 23.2817 66.8521 23.2817C66.8521 23.2818 66.8522 23.282 66.8523 23.2822C66.8526 23.2825 66.8529 23.2832 66.8534 23.2841C66.8544 23.2858 66.856 23.2885 66.8581 23.2922C66.8623 23.2995 66.8687 23.3106 66.8771 23.3253C66.8939 23.3548 66.9188 23.3987 66.951 23.4559C67.0154 23.5702 67.1085 23.7372 67.2228 23.9468C67.4516 24.3662 67.7646 24.9548 68.1014 25.6314C68.7796 26.9937 69.5367 28.6782 69.9085 30.0497L70.9596 29.7647C70.5583 28.2841 69.7602 26.5197 69.0764 25.1461C68.7322 24.4547 68.4126 23.8536 68.1789 23.4253C68.062 23.211 67.9665 23.0397 67.9 22.9216C67.8668 22.8625 67.8407 22.8168 67.8229 22.7856C67.814 22.77 67.8072 22.758 67.8025 22.7498C67.8002 22.7458 67.7984 22.7426 67.7971 22.7405C67.7965 22.7394 67.796 22.7386 67.7957 22.738C67.7955 22.7377 67.7954 22.7374 67.7953 22.7373C67.7952 22.7372 67.7952 22.7371 67.7951 22.737C67.7951 22.737 67.7951 22.7369 67.3236 23.0093ZM58.8033 13.3261C58.7569 13.8686 58.7569 13.8686 58.757 13.8686C58.757 13.8686 58.757 13.8686 58.7571 13.8686C58.7572 13.8687 58.7573 13.8687 58.7576 13.8687C58.758 13.8687 58.7586 13.8688 58.7595 13.8689C58.7613 13.869 58.7639 13.8692 58.7673 13.8695C58.7743 13.8701 58.7846 13.871 58.7982 13.8722C58.8254 13.8745 58.8655 13.878 58.9174 13.8824C59.0211 13.8914 59.1716 13.9045 59.3586 13.9208C59.7326 13.9536 60.2525 13.9997 60.8362 14.0528C62.0049 14.1592 63.4246 14.2936 64.4409 14.4065L64.5611 13.3241C63.5332 13.2099 62.1041 13.0747 60.935 12.9683C60.3497 12.915 59.8285 12.8688 59.4536 12.836C59.2661 12.8195 59.1152 12.8064 59.0111 12.7974C58.9591 12.7929 58.9188 12.7895 58.8914 12.7871C58.8777 12.7859 58.8673 12.785 58.8603 12.7844C58.8568 12.7841 58.8541 12.7839 58.8523 12.7838C58.8514 12.7837 58.8508 12.7836 58.8503 12.7836C58.8501 12.7836 58.8499 12.7836 58.8498 12.7835C58.8497 12.7835 58.8497 12.7835 58.8497 12.7835C58.8496 12.7835 58.8496 12.7835 58.8033 13.3261ZM63.6187 14.7093C63.0698 14.4259 61.9 13.9485 60.8967 13.552C60.3887 13.3513 59.9137 13.1676 59.5657 13.034C59.3916 12.9672 59.2493 12.9129 59.1503 12.8753C59.1009 12.8565 59.0623 12.8419 59.036 12.8319C59.0228 12.8269 59.0127 12.8231 59.0059 12.8206C59.0025 12.8193 58.9999 12.8183 58.9982 12.8176C58.9973 12.8173 58.9967 12.8171 58.9962 12.8169C58.996 12.8168 58.9958 12.8167 58.9957 12.8167C58.9956 12.8167 58.9956 12.8166 58.9956 12.8166C58.9955 12.8166 58.9955 12.8166 58.8033 13.3261C58.611 13.8356 58.6111 13.8356 58.6111 13.8356C58.6111 13.8356 58.6111 13.8356 58.6112 13.8356C58.6113 13.8356 58.6114 13.8357 58.6116 13.8358C58.612 13.8359 58.6126 13.8362 58.6135 13.8365C58.6151 13.8371 58.6176 13.838 58.6209 13.8393C58.6275 13.8418 58.6374 13.8455 58.6503 13.8504C58.6762 13.8602 58.7144 13.8747 58.7633 13.8933C58.8613 13.9305 59.0026 13.9844 59.1755 14.0507C59.5212 14.1835 59.9928 14.3659 60.4964 14.5649C61.5162 14.9679 62.6291 15.424 63.119 15.677L63.6187 14.7093ZM67.8921 17.0681C66.9704 16.5151 64.7082 15.272 63.6187 14.7093L63.119 15.677C64.1947 16.2325 66.4355 17.4642 67.3318 18.002L67.8921 17.0681ZM70.0567 18.371C69.3197 17.9267 68.5814 17.4817 67.8921 17.0681L67.3318 18.002C68.02 18.4149 68.7573 18.8593 69.4945 19.3037L70.0567 18.371ZM70.06 18.3729L70.0572 18.3712L69.4941 19.3034L69.4969 19.3051L70.06 18.3729ZM70.0649 18.3759L70.0596 18.3727L69.4973 19.3054L69.5027 19.3086L70.0649 18.3759ZM72.1669 19.6411C71.4976 19.2394 70.7819 18.808 70.0649 18.3759L69.5027 19.3086C70.2195 19.7407 70.9361 20.1726 71.6065 20.5749L72.1669 19.6411ZM81.0662 26.6282C81.3918 26.1917 81.3917 26.1917 81.3917 26.1917C81.3916 26.1916 81.3915 26.1915 81.3914 26.1915C81.3912 26.1913 81.3909 26.1911 81.3905 26.1907C81.3896 26.1901 81.3883 26.1891 81.3866 26.1879C81.3833 26.1854 81.3782 26.1816 81.3716 26.1767C81.3583 26.1668 81.3386 26.1521 81.3129 26.1329C81.2613 26.0946 81.1856 26.0382 81.0883 25.966C80.8939 25.8216 80.6137 25.6139 80.2705 25.3605C79.5841 24.8537 78.6454 24.1638 77.6365 23.4316C75.6282 21.9744 73.312 20.3283 72.1669 19.6411L71.6065 20.5749C72.702 21.2323 74.9755 22.8464 76.9969 24.3131C78.0027 25.0429 78.9388 25.7309 79.6235 26.2366C79.9659 26.4893 80.2453 26.6965 80.439 26.8404C80.5359 26.9123 80.6114 26.9684 80.6626 27.0066C80.6882 27.0256 80.7078 27.0402 80.7209 27.05C80.7275 27.0548 80.7324 27.0585 80.7357 27.061C80.7374 27.0622 80.7386 27.0632 80.7394 27.0638C80.7399 27.0641 80.7402 27.0643 80.7404 27.0645C80.7405 27.0645 80.7405 27.0646 80.7406 27.0646C80.7406 27.0647 80.7407 27.0647 81.0662 26.6282ZM74.6581 19.8299C75.3154 20.4872 76.8015 22.2581 78.1444 23.8927C78.811 24.7041 79.4353 25.4732 79.893 26.0395C80.1219 26.3227 80.309 26.555 80.4389 26.7166C80.5038 26.7973 80.5544 26.8604 80.5888 26.9032C80.606 26.9247 80.6191 26.941 80.6279 26.952C80.6323 26.9575 80.6356 26.9617 80.6379 26.9644C80.639 26.9658 80.6398 26.9668 80.6404 26.9675C80.6406 26.9679 80.6408 26.9681 80.641 26.9683C80.641 26.9684 80.6411 26.9685 80.6411 26.9685C80.6412 26.9685 80.6412 26.9686 81.0662 26.6282C81.4913 26.2879 81.4913 26.2878 81.4912 26.2878C81.4912 26.2877 81.4911 26.2877 81.491 26.2876C81.4909 26.2874 81.4907 26.2871 81.4904 26.2867C81.4898 26.286 81.4889 26.285 81.4878 26.2835C81.4855 26.2807 81.4822 26.2765 81.4777 26.2709C81.4688 26.2598 81.4556 26.2433 81.4383 26.2217C81.4037 26.1786 81.3528 26.1153 81.2876 26.0342C81.1572 25.872 80.9695 25.6389 80.7401 25.355C80.2812 24.7872 79.6549 24.0157 78.9859 23.2014C77.6576 21.5846 76.1322 19.7639 75.4282 19.0599L74.6581 19.8299ZM74.1332 19.2951C74.3146 19.4815 74.4904 19.6623 74.6581 19.8299L75.4282 19.0599C75.2668 18.8984 75.0964 18.7233 74.9138 18.5356L74.1332 19.2951ZM74.1274 19.289L74.1276 19.2892L74.9194 18.5415L74.9192 18.5413L74.1274 19.289ZM74.1382 19.3002L74.1383 19.3002L74.9083 18.5301L74.9083 18.5301L74.1382 19.3002ZM70.1302 16.0414C71.7638 16.8661 73.0653 18.1974 74.133 19.2948L74.9136 18.5354C73.8621 17.4547 72.4417 15.9884 70.621 15.0692L70.1302 16.0414ZM64.4409 14.4065C65.0024 14.4689 66.0589 14.6908 67.1765 14.9978C68.2957 15.3052 69.4198 15.6828 70.1302 16.0414L70.621 15.0692C69.8106 14.6601 68.601 14.2597 67.4649 13.9476C66.3271 13.6351 65.2067 13.3959 64.5611 13.3241L64.4409 14.4065ZM55.3764 13.5749L47.3416 16.6444L47.7302 17.6618L55.7651 14.5923L55.3764 13.5749ZM66.0728 23.3905C64.5136 20.9885 61.9517 18.5458 59.8109 16.7213C58.7351 15.8044 57.7551 15.0349 57.0439 14.4945C56.6881 14.2242 56.3993 14.0109 56.1989 13.8648C56.0986 13.7918 56.0205 13.7355 55.9672 13.6974C55.9405 13.6783 55.92 13.6637 55.9061 13.6538C55.8991 13.6489 55.8937 13.6451 55.8901 13.6425C55.8882 13.6412 55.8868 13.6402 55.8858 13.6395C55.8853 13.6391 55.8849 13.6389 55.8847 13.6387C55.8845 13.6386 55.8844 13.6385 55.8843 13.6384C55.8842 13.6383 55.8841 13.6383 55.5707 14.0836C55.2574 14.5289 55.2573 14.5289 55.2573 14.5289C55.2574 14.5289 55.2574 14.5289 55.2575 14.529C55.2576 14.5291 55.2579 14.5293 55.2582 14.5295C55.2589 14.53 55.2601 14.5308 55.2616 14.5319C55.2647 14.5341 55.2695 14.5375 55.2759 14.542C55.2887 14.5511 55.3079 14.5648 55.3334 14.583C55.3843 14.6194 55.4599 14.6738 55.5575 14.7449C55.7526 14.8872 56.0356 15.0961 56.385 15.3616C57.084 15.8928 58.0476 16.6494 59.1045 17.5501C61.2292 19.3609 63.69 21.7199 65.1593 23.9834L66.0728 23.3905ZM70.244 36.4588C70.0453 32.0512 68.9815 27.8713 66.0728 23.3905L65.1593 23.9834C67.95 28.2824 68.965 32.2695 69.156 36.5078L70.244 36.4588ZM67.9746 48.3625C68.8016 46.7094 69.4025 44.5416 69.7798 42.4019C70.1575 40.259 70.3181 38.1031 70.244 36.4588L69.156 36.5078C69.2258 38.0556 69.0745 40.1299 68.7072 42.2128C68.3394 44.2991 67.7622 46.353 67.0006 47.8752L67.9746 48.3625ZM59.0108 56.5922C63.1487 54.9456 66.332 51.6456 67.9746 48.3625L67.0006 47.8752C65.4659 50.9426 62.4743 54.0418 58.6082 55.5803L59.0108 56.5922ZM42.8884 57.4319C47.7731 58.6309 54.3026 58.4658 59.0108 56.5922L58.6082 55.5803C54.1442 57.3567 47.8505 57.5285 43.148 56.3742L42.8884 57.4319ZM31.4819 51.3094C33.8994 53.5894 38.0853 56.2529 42.8884 57.4319L43.148 56.3742C38.5485 55.2452 34.5262 52.6836 32.2291 50.5171L31.4819 51.3094ZM24.5417 41.0383C26.0418 44.8642 29.1421 49.1027 31.4818 51.3094L32.2291 50.5171C29.9938 48.409 26.9911 44.302 25.5556 40.6408L24.5417 41.0383ZM23.1459 28.0175C22.7225 31.8753 22.7514 36.4722 24.5417 41.0383L25.5556 40.6408C23.8548 36.3028 23.815 31.9035 24.2285 28.1363L23.1459 28.0175ZM26.7546 17.6986C24.8232 21.0674 23.575 24.1077 23.1459 28.0175L24.2285 28.1363C24.6362 24.4212 25.8156 21.526 27.6994 18.2403L26.7546 17.6986ZM29.6774 14.43C29.3325 14.0086 29.3323 14.0088 29.332 14.009C29.3319 14.0091 29.3317 14.0093 29.3315 14.0094C29.3312 14.0097 29.3308 14.01 29.3305 14.0103C29.3297 14.0109 29.329 14.0115 29.3282 14.0122C29.3265 14.0136 29.3247 14.0151 29.3227 14.0168C29.3188 14.0201 29.3141 14.0242 29.3086 14.0289C29.2978 14.0385 29.2841 14.0509 29.2674 14.0665C29.2341 14.0978 29.1889 14.1421 29.1319 14.2025C29.0178 14.3231 28.8553 14.5084 28.643 14.7825C28.2188 15.3302 27.5925 16.237 26.7546 17.6986L27.6994 18.2403C28.5184 16.8117 29.1173 15.9487 29.5041 15.4493C29.6973 15.1998 29.8366 15.0422 29.9231 14.9508C29.9663 14.9051 29.9961 14.8761 30.0127 14.8606C30.0209 14.8529 30.0258 14.8485 30.0274 14.8471C30.0282 14.8464 30.0282 14.8464 30.0273 14.8472C30.0269 14.8475 30.0262 14.8481 30.0254 14.8488C30.025 14.8492 30.0245 14.8496 30.0239 14.85C30.0237 14.8502 30.0234 14.8504 30.0231 14.8507C30.023 14.8508 30.0227 14.851 30.0227 14.8511C30.0224 14.8512 30.0222 14.8514 29.6774 14.43ZM27.2075 22.4702C27.7494 20.5012 28.489 18.5502 29.0956 17.0871C29.3984 16.3567 29.6671 15.7503 29.8597 15.3271C29.956 15.1156 30.0333 14.9499 30.0863 14.8376C30.1128 14.7814 30.1332 14.7386 30.1469 14.71C30.1537 14.6958 30.1589 14.685 30.1623 14.678C30.164 14.6745 30.1652 14.6719 30.166 14.6702C30.1664 14.6694 30.1667 14.6688 30.1669 14.6684C30.167 14.6683 30.1671 14.6681 30.1671 14.6681C30.1671 14.668 30.1671 14.668 30.1671 14.668C30.1671 14.668 30.1671 14.6681 29.6774 14.43C29.1876 14.192 29.1876 14.192 29.1876 14.1921C29.1875 14.1922 29.1875 14.1922 29.1874 14.1923C29.1874 14.1925 29.1872 14.1927 29.1871 14.193C29.1868 14.1936 29.1864 14.1944 29.1859 14.1955C29.1849 14.1976 29.1834 14.2007 29.1815 14.2046C29.1776 14.2126 29.172 14.2243 29.1647 14.2395C29.1501 14.27 29.1288 14.3148 29.1013 14.373C29.0464 14.4894 28.9671 14.6595 28.8686 14.8759C28.6716 15.3084 28.3979 15.9263 28.0896 16.67C27.4738 18.1552 26.716 20.152 26.1575 22.1811L27.2075 22.4702ZM28.2741 36.8182C27.0556 33.8971 25.771 27.689 27.2075 22.4702L26.1575 22.1811C24.6374 27.7039 25.9889 34.1689 27.269 37.2375L28.2741 36.8182ZM31.5565 42.7021C31.9674 42.3448 31.9674 42.3448 31.9674 42.3448C31.9674 42.3448 31.9674 42.3448 31.9674 42.3448C31.9673 42.3448 31.9673 42.3447 31.9672 42.3445C31.9669 42.3443 31.9665 42.3438 31.966 42.3432C31.9649 42.3419 31.9631 42.3398 31.9607 42.3371C31.9559 42.3315 31.9486 42.3231 31.9389 42.3118C31.9195 42.2892 31.8906 42.2553 31.8532 42.2111C31.7785 42.1226 31.6699 41.9926 31.536 41.8286C31.2682 41.5002 30.8999 41.0361 30.4993 40.494C29.6913 39.4008 28.7776 38.0255 28.2741 36.8182L27.269 37.2375C27.8251 38.5708 28.804 40.0326 29.6235 41.1414C30.0367 41.7003 30.416 42.1784 30.6922 42.517C30.8304 42.6864 30.943 42.8211 31.0214 42.9139C31.0606 42.9603 31.0912 42.9963 31.1123 43.0208C31.1228 43.0331 31.131 43.0425 31.1366 43.049C31.1393 43.0522 31.1415 43.0547 31.143 43.0565C31.1438 43.0573 31.1444 43.058 31.1448 43.0585C31.145 43.0588 31.1452 43.059 31.1453 43.0591C31.1454 43.0592 31.1455 43.0593 31.1455 43.0593C31.1455 43.0594 31.1456 43.0594 31.5565 42.7021ZM38.2709 47.63C36.8599 46.9379 35.2905 45.6316 34.0507 44.4663C33.4364 43.889 32.9134 43.3562 32.5442 42.9679C32.3597 42.7739 32.2139 42.6163 32.1146 42.5077C32.065 42.4533 32.027 42.4113 32.0016 42.383C31.9889 42.3689 31.9794 42.3583 31.9732 42.3513C31.9701 42.3478 31.9678 42.3452 31.9663 42.3435C31.9656 42.3427 31.965 42.3421 31.9647 42.3418C31.9646 42.3416 31.9645 42.3415 31.9644 42.3414C31.9644 42.3414 31.9644 42.3414 31.9644 42.3414C31.9644 42.3414 31.9644 42.3414 31.5565 42.7021C31.1485 43.0628 31.1486 43.0628 31.1486 43.0629C31.1487 43.063 31.1488 43.063 31.1489 43.0631C31.149 43.0633 31.1492 43.0636 31.1495 43.0639C31.15 43.0645 31.1508 43.0653 31.1518 43.0664C31.1537 43.0686 31.1564 43.0717 31.16 43.0757C31.1672 43.0838 31.1777 43.0955 31.1914 43.1107C31.2187 43.1412 31.2588 43.1856 31.3106 43.2423C31.4143 43.3557 31.565 43.5187 31.755 43.7184C32.1348 44.1177 32.6724 44.6655 33.3048 45.2599C34.5582 46.438 36.2261 47.8401 37.7913 48.6077L38.2709 47.63ZM46.6903 49.7411C43.4929 49.7855 41.192 49.0627 38.2709 47.63L37.7913 48.6077C40.8123 50.0894 43.2852 50.8775 46.7055 50.83L46.6903 49.7411ZM56.7232 45.766C54.4385 47.8661 50.9112 49.6825 46.6903 49.7411L46.7055 50.83C51.2318 50.7672 55.008 48.8218 57.4602 46.5677L56.7232 45.766ZM61.2564 38.8332C60.2805 41.8528 59.0749 43.6043 56.7232 45.766L57.4602 46.5677C59.9344 44.2934 61.2528 42.3859 62.2927 39.1681L61.2564 38.8332ZM61.2617 28.2598C62.5546 31.8842 62.2366 35.7999 61.2564 38.8332L62.2927 39.1681C63.3281 35.964 63.6792 31.7953 62.2874 27.8939L61.2617 28.2598ZM56.2865 20.917C58.9387 23.0592 60.0994 25.0017 61.2617 28.2598L62.2874 27.8939C61.0755 24.4968 59.8155 22.3675 56.9708 20.0698L56.2865 20.917ZM47.5359 17.1531C47.4446 17.6899 47.4445 17.6899 47.4445 17.6899C47.4445 17.6899 47.4445 17.6899 47.4446 17.6899C47.4446 17.6899 47.4448 17.6899 47.4451 17.69C47.4457 17.6901 47.4466 17.6903 47.4479 17.6905C47.4506 17.6909 47.4547 17.6916 47.4603 17.6926C47.4714 17.6946 47.4884 17.6976 47.5109 17.7016C47.5559 17.7097 47.6229 17.7219 47.7096 17.7384C47.8831 17.7713 48.1352 17.8211 48.4469 17.888C49.0708 18.0217 49.9313 18.2234 50.8774 18.4947C52.7935 19.0443 54.9725 19.8557 56.2865 20.917L56.9708 20.0698C55.472 18.8593 53.1047 18.0006 51.1776 17.4479C50.2021 17.1681 49.3167 16.9607 48.6753 16.8231C48.3543 16.7543 48.0938 16.7028 47.9128 16.6685C47.8223 16.6513 47.7517 16.6384 47.7033 16.6297C47.6791 16.6253 47.6605 16.6221 47.6477 16.6198C47.6413 16.6187 47.6364 16.6178 47.633 16.6173C47.6313 16.617 47.6299 16.6167 47.629 16.6166C47.6285 16.6165 47.6281 16.6164 47.6278 16.6164C47.6277 16.6163 47.6275 16.6163 47.6274 16.6163C47.6273 16.6163 47.6272 16.6163 47.5359 17.1531Z" fill="url(#paint1_linear_799_2180)" mask="url(#path-3-inside-1_799_2180)"/>
<path fill-rule="evenodd" clip-rule="evenodd" d="M51.2802 24.288C51.2802 25.0122 50.8314 25.6315 50.1968 25.8831V32.8645L56.0738 34.3976C56.2453 34.0255 56.6216 33.7673 57.0582 33.7673C57.6565 33.7673 58.1415 34.2523 58.1415 34.8506C58.1415 35.4489 57.6565 35.934 57.0582 35.934C56.5051 35.934 56.0488 35.5195 55.983 34.9841L50.1968 33.9478H48.9329L43.3334 34.9216C43.2968 35.4869 42.8268 35.934 42.2523 35.934C41.654 35.934 41.1689 35.4489 41.1689 34.8506C41.1689 34.2523 41.654 33.7673 42.2523 33.7673C42.6723 33.7673 43.0365 34.0063 43.2163 34.3558L48.9329 32.8645V25.8831C48.2983 25.6315 47.8496 25.0121 47.8496 24.288C47.8496 23.3406 48.6175 22.5727 49.5649 22.5727C50.5122 22.5727 51.2802 23.3406 51.2802 24.288ZM49.565 25.1005C50.0138 25.1005 50.3775 24.7367 50.3775 24.288C50.3775 23.8392 50.0138 23.4755 49.565 23.4755C49.1163 23.4755 48.7525 23.8392 48.7525 24.288C48.7525 24.7367 49.1163 25.1005 49.565 25.1005ZM49.7264 34.4703L49.7263 34.4703L49.7262 34.4703V34.4704L47.8799 35.7465V57.5986C47.8799 57.5986 48.4932 57.6456 48.8375 57.6571C49.178 57.6684 49.7141 57.6573 49.7262 57.6571V57.6574C49.7262 57.6574 49.951 57.6673 50.5804 57.6329C51.0273 57.6084 51.4309 57.5936 51.4309 57.5936V35.617L49.7264 34.4704V34.4703Z" fill="white"/>
<path d="M49.7926 34.3367L49.4231 34.2234L49.4234 57.6642L49.793 57.6642L49.7926 34.3367Z" fill="#02294D"/>
<defs>
<linearGradient id="paint0_linear_799_2180" x1="79.0322" y1="24.4657" x2="28.0274" y2="14.8943" gradientUnits="userSpaceOnUse">
<stop offset="0.3934" stop-color="#ED3128"/>
<stop offset="0.918272" stop-color="#FCC96F"/>
</linearGradient>
<linearGradient id="paint1_linear_799_2180" x1="84.3859" y1="36.4833" x2="26.0118" y2="14.5409" gradientUnits="userSpaceOnUse">
<stop stop-color="#86040E"/>
<stop offset="1" stop-color="#FAB64C"/>
</linearGradient>
</defs>
</svg>
